<svg width="40" height="40" viewBox="0 0 40 40" fill="none" xmlns="http://www.w3.org/2000/svg">
<path d="M20 40C31.0457 40 40 31.0457 40 20C40 8.9543 31.0457 0 20 0C8.9543 0 0 8.9543 0 20C0 31.0457 8.9543 40 20 40Z" fill="#FCF0E9"/>
<path d="M29.9758 17.599C29.9671 17.5793 29.953 17.5639 29.9403 17.5464C29.9278 17.5291 29.9162 17.5121 29.9004 17.4979C29.8943 17.4924 29.8916 17.4843 29.8851 17.4793L27.793 15.8793V12.793C27.793 12.6256 27.6575 12.4899 27.4899 12.4899H23.3614L20.1861 10.0624C20.0772 9.97921 19.9269 9.97921 19.8179 10.0624L16.6427 12.4899H12.5141C12.3466 12.4899 12.211 12.6256 12.211 12.793V15.8793L10.119 17.4793C10.1124 17.4843 10.1097 17.4924 10.1037 17.4979C10.0879 17.5121 10.0763 17.5291 10.0638 17.5463C10.0511 17.5639 10.037 17.5793 10.0283 17.5991C10.0202 17.6174 10.0188 17.6383 10.0144 17.6583C10.0099 17.6791 10 17.6983 10 17.72C10 17.7227 10.0017 17.725 10.0018 17.7276V29.6969C10.0018 29.8643 10.1373 30 10.3049 30H29.6992C29.8667 30 30.0023 29.8643 30.0023 29.6969V17.7276C30.0024 17.725 30.0041 17.7227 30.0041 17.72C30.0041 17.6984 29.9942 17.6793 29.9897 17.6586C29.9853 17.6384 29.9839 17.6175 29.9758 17.599ZM29.2019 17.72L27.793 18.7981V16.6425L29.2019 17.72ZM20.002 10.6847L22.3633 12.4899H17.6408L20.002 10.6847ZM23.2483 13.0961C23.2527 13.0963 23.2568 13.0982 23.2612 13.0982C23.2643 13.0982 23.2671 13.0962 23.2702 13.0961H27.1869V19.2619L20.002 24.7594L12.8172 19.2619V13.0961H23.2483ZM12.211 16.6425V18.7981L10.8021 17.72L12.211 16.6425ZM10.608 29.3938V18.335L19.8179 25.3817C19.8721 25.4233 19.9372 25.4441 20.002 25.4441C20.0669 25.4441 20.132 25.4233 20.1861 25.3817L29.3961 18.335V29.3938H10.608Z" fill="#14142A"/>
<path d="M15.2331 15.2637H24.771C24.9385 15.2637 25.0741 15.1279 25.0741 14.9606C25.0741 14.7932 24.9385 14.6575 24.771 14.6575H15.2331C15.0656 14.6575 14.93 14.7932 14.93 14.9606C14.93 15.1279 15.0656 15.2637 15.2331 15.2637Z" fill="#EBA37A"/>
<path d="M15.2331 17.4893H24.771C24.9385 17.4893 25.0741 17.3536 25.0741 17.1862C25.0741 17.0188 24.9385 16.8831 24.771 16.8831H15.2331C15.0656 16.8831 14.93 17.0188 14.93 17.1862C14.93 17.3536 15.0656 17.4893 15.2331 17.4893Z" fill="#EBA37A"/>
<path d="M15.2331 19.7148H24.771C24.9385 19.7148 25.0741 19.5791 25.0741 19.4117C25.0741 19.2444 24.9385 19.1086 24.771 19.1086H15.2331C15.0656 19.1086 14.93 19.2444 14.93 19.4117C14.93 19.5791 15.0656 19.7148 15.2331 19.7148Z" fill="#EBA37A"/>
</svg>
