<?xml version="1.0" encoding="UTF-8"?>
<svg width="57px" height="58px" viewBox="0 0 57 58" version="1.1" xmlns="http://www.w3.org/2000/svg" xmlns:xlink="http://www.w3.org/1999/xlink">
    <!-- Generator: Sketch 59.1 (86144) - https://sketch.com -->
    <title>Group</title>
    <desc>Created with Sketch.</desc>
    <g id="Page-1" stroke="none" stroke-width="1" fill="none" fill-rule="evenodd">
        <g id="145" transform="translate(-322.000000, -151.000000)" fill="#232325">
            <g id="Group" transform="translate(323.262000, 152.752000)">
                <path d="M27.293,2.932 C13.859,2.932 2.931,13.861 2.931,27.293 C2.931,40.725 13.859,51.654 27.293,51.654 C40.724,51.654 51.653,40.725 51.653,27.293 C51.653,13.861 40.724,2.932 27.293,2.932 Z M27.293,54.585 C12.243,54.585 -2.84217094e-14,42.342 -2.84217094e-14,27.293 C-2.84217094e-14,12.244 12.243,-3.55271368e-15 27.293,-3.55271368e-15 C42.342,-3.55271368e-15 54.585,12.244 54.585,27.293 C54.585,42.342 42.342,54.585 27.293,54.585 L27.293,54.585 Z" id="Fill-218" stroke="#000000" stroke-width="1.7"></path>
                <path d="M23.012,27.422 L23.012,43.24 C23.012,43.468 23.197,43.652 23.425,43.652 L29.299,43.652 C29.526,43.652 29.711,43.468 29.711,43.24 L29.711,27.164 L33.969,27.164 C34.183,27.164 34.361,27 34.38,26.787 L34.789,21.943 C34.809,21.703 34.62,21.496 34.379,21.496 L29.711,21.496 L29.711,18.06 C29.711,17.254 30.363,16.601 31.169,16.601 L34.451,16.601 C34.678,16.601 34.863,16.417 34.863,16.19 L34.863,11.346 C34.863,11.118 34.678,10.934 34.451,10.934 L28.905,10.934 C25.65,10.934 23.012,13.572 23.012,16.826 L23.012,21.496 L20.075,21.496 C19.847,21.496 19.663,21.681 19.663,21.908 L19.663,26.752 C19.663,26.98 19.847,27.164 20.075,27.164 L23.012,27.164 L23.012,27.422" id="Fill-219"></path>
            </g>
        </g>
    </g>
</svg>