<svg width="40" height="40" viewBox="0 0 40 40" fill="none" xmlns="http://www.w3.org/2000/svg">
<path d="M20 40C31.0457 40 40 31.0457 40 20C40 8.9543 31.0457 0 20 0C8.9543 0 0 8.9543 0 20C0 31.0457 8.9543 40 20 40Z" fill="#FCF0E9"/>
<path d="M20.3415 10C16.8439 10 14 12.8439 14 16.3415C14 19.7366 19.8829 29.4683 20.1317 29.8829C20.1756 29.9561 20.2537 30 20.3415 30C20.4293 30 20.5073 29.9561 20.5512 29.8829C20.8 29.4683 26.6829 19.7366 26.6829 16.3415C26.6829 12.8439 23.839 10 20.3415 10ZM20.3415 29.2829C19.2732 27.4878 14.4878 19.2585 14.4878 16.3415C14.4878 13.1122 17.1122 10.4878 20.3415 10.4878C23.5707 10.4878 26.1951 13.1122 26.1951 16.3415C26.1951 19.2537 21.4098 27.4829 20.3415 29.2829Z" fill="#14142A"/>
<path d="M20.3415 12.439C18.1902 12.439 16.439 14.1902 16.439 16.3415C16.439 18.4927 18.1902 20.2439 20.3415 20.2439C22.4927 20.2439 24.2439 18.4927 24.2439 16.3415C24.2439 14.1902 22.4927 12.439 20.3415 12.439ZM20.3415 19.7561C18.4585 19.7561 16.9268 18.2244 16.9268 16.3415C16.9268 14.4585 18.4585 12.9268 20.3415 12.9268C22.2244 12.9268 23.7561 14.4585 23.7561 16.3415C23.7561 18.2244 22.2244 19.7561 20.3415 19.7561Z" fill="#EBA37A"/>
</svg>
