<svg xmlns="http://www.w3.org/2000/svg" viewBox="0 0 378 124"><style>.a{fill:#E28C05;}</style><path d="M79 120.4c11.7 0 23.2-1.3 34-6.2 16.5-7.6 26.3-20.3 28.8-38.3 1.8-12.8 0.7-25.3-4.3-37.3 -3.9-9.2-9.8-16.8-18.3-22.2 -7.7-4.9-16.1-6.5-25.1-6.1 -9.2 0.4-17.5 3.4-24.6 9.3C59.5 28 53.9 38.7 53.4 51.8c0 0.4-0.1 0.7-0.1 1.1 -0.1 1.7-0.6 2.2-2.4 2.1 -2.8-0.1-4.4-1.8-4.4-4.5 0-12.8 5.2-23.4 14.3-32.1C68.4 11.1 77.3 6.2 87.8 4.3c6.7-1.2 13.5-1.2 20.2-0.3 7.5 0.9 14.6 3.1 21.1 7 12.6 7.8 20.5 19 23.5 33.4 2.6 12.5 2.3 25-2 37.1 -4.7 13.6-13.8 23.6-26 30.9 -8.7 5.3-18.3 8.2-28.3 9.8 -6.5 1-13.1 1.4-19.7 1.3 -10-0.1-19.9-1-29.5-3.7 -11.8-3.3-22-9.5-30.9-17.8C9.8 96.2 5 89.4 2.3 81.1c-1.9-5.7-2.4-11.6-2.2-17.6 0.2-7.2 1.3-14.3 3.6-21.2 2.5-7.3 6.8-13.4 11.8-19.2 6.3-7.2 13-13.9 20.6-19.7 2.4-1.8 5.1-2.6 8-3 4.3-0.6 8.5-0.7 12.7 0.6 0.7 0.2 1.5 0.6 2.1 1.1 1.1 0.9 1.1 2 0 2.9 -4.7 3.9-9.5 7.6-14 11.7C34 26.8 26.2 38.8 22.7 53.3c-2.6 10.6-2.7 21.2 0 31.8 3.6 14 12.3 23.7 25.5 29.4 7 3.1 14.3 4.6 21.9 5.3C73.1 120.1 76 120.2 79 120.4z" class="a"/><path d="M355.7 60.7c0.7-1.9 1.4-3.6 2.1-5.5 5.2 1.5 10.4 2.9 15.7 4.4 -2.6 2.9-4.7 6-6.3 9.5 -2.8 5.9-4.1 12.2-4.4 18.6 -0.4 8.5-0.1 16.9 2.2 25.2 0.6 2.2 1.5 4.2 3.2 5.8 1.9 1.8 3.4 1.8 5.3-0.1 1-1 4.2-0.6 4.7 0.6 0.2 0.6 0.1 1.7-0.4 2 -0.9 0.7-2 1.4-3.1 1.7 -6.1 1.6-11.9-0.7-15.4-6.2 -2.4-3.8-4.4-7.8-5.7-12.1 -0.1-0.3-0.2-0.5-0.3-0.8 -1.3 1.7-2.4 3.3-3.7 4.8 -3.7 4.6-7.9 8.7-13.2 11.5 -11.2 5.9-25.5 4.3-35.4-4 -7.3-6.1-11.1-14-10.6-23.5 0.2-5.2 1.6-10.3 2.8-15.4 1.5-6.1 3.9-11.8 7.6-16.9 6-8.1 14.1-11.6 24.1-10.8 8.7 0.7 16.6 3.9 24.2 7.8C351.4 58.3 353.4 59.5 355.7 60.7zM306.5 98.8c0.2 2.1 0.3 4.3 0.7 6.4 2.9 14.7 16.2 17.7 25.6 13.3 5.6-2.6 9.5-7.2 12.2-12.6 5.5-11.1 8-23.1 8.5-35.5 0.2-4-1.6-7.1-4.6-9.6 -5-4-10.6-4.5-16.5-2.6 -5.2 1.7-9.3 5-13 9C311.3 76.2 306.8 86.6 306.5 98.8z" class="a"/><path d="M220.3 76.4c-0.2-5.8-0.1-11.9-1.4-17.8 -0.4-1.6-1-3.1-1.6-4.6 -0.5-1.2-0.2-2.8 1.2-3.6 1.4-0.8 3-1.4 4.6-1.6 3-0.5 6-0.3 8.8 1 2.1 1 3.5 2.5 3.3 5 -0.2 3.5-0.6 6.9-0.7 10.4 -0.1 6-0.3 12.1-0.1 18.1 0.2 5.8 1 11.6 2.6 17.3 1 3.4 2.2 6.7 4.4 9.5 3.1 3.9 7.1 4.4 11 1.5 2.9-2.2 5-5.2 6.8-8.3 5.9-10.1 9.7-21 11.1-32.6 0.6-5.2 0.8-10.4 1.1-15.6 0-0.6-0.2-1.2-0.3-1.9 -0.5-1.9 0.2-3.4 1.7-4.1 2.2-1 4.5 0.4 4.4 2.9 -0.1 3.5-0.4 6.9-0.7 10.4 -0.8 8.2-2.1 16.3-4.5 24.2 -3.3 10.7-8.1 20.7-14.8 29.7 -2.7 3.6-6.3 6.1-10.8 7.1 -7.3 1.6-14.2-1.3-18.4-7.6 -3-4.5-4.6-9.6-5.7-14.9C220.6 92.7 220.1 84.7 220.3 76.4z" class="a"/><path d="M200.4 123.6c-5.9-0.1-11.7-0.5-17-3.5 -3.8-2.1-6-5.5-7.4-9.5 -1.8-5.2-2.5-10.6-2.6-16.1 -0.2-10 1.2-19.8 2.9-29.6 0.6-3.3 1.2-6.5 1.7-9.8 0.4-2.8 2.1-4.2 4.6-4.7 3.2-0.6 6.2-0.2 9 1.3 2.3 1.3 2.7 2.8 2.1 5.3 -1.1 5.2-2.2 10.5-2.9 15.8 -1.2 9.1-2.1 18.3-3.1 27.5 -0.5 4.6-0.6 9.2 0.8 13.8 1.7 5.5 6.1 7.3 11.6 7.1 1.3-0.1 2.7 0 4 0.2 0.4 0.1 0.8 0.8 1.2 1.2 -0.4 0.2-0.8 0.6-1.3 0.7C202.9 123.4 201.6 123.5 200.4 123.6z" class="a"/><path d="M45.1 63.6c2.1 0.2 4.1 0.3 6.2 0.5 0 2.4-0.1 4.6 0 6.9 0.4 8.3 1.9 16.4 5.8 23.9 5.1 9.6 13.3 14.2 24 14.6 6.6 0.3 12.8-0.9 18.5-4.4 6.1-3.8 10.4-9.2 13.4-15.6 1.5-3.4 2.6-6.9 3.9-10.4 0.1-0.3 0.2-0.7 0.3-1.2 2 0.5 3.9 1 6 1.5 -2.2 8.4-5.4 16.2-11 22.9 -4.7 5.7-10.6 9.7-17.6 11.9 -5.3 1.7-10.7 1.8-16.1 1.3 -6.9-0.6-13.1-2.8-18.4-7.2 -5.2-4.3-8.6-9.8-10.9-16.1C45.7 83 44.8 73.5 45.1 63.6z" class="a"/><path d="M189.1 26.5c2.9 0.1 5.6 0.7 7.9 2.5 3.2 2.4 3.4 6.1 0.3 8.8 -2.3 2.1-5.2 2.7-8.2 2.8 -3.1 0-6-0.7-8.5-2.8 -2.9-2.5-2.8-6.2 0.2-8.6C183.3 27.2 186.1 26.5 189.1 26.5z" class="a"/><path d="M98.9 42.2c0 2.7-0.4 4.9-1.5 7 -0.4 0.8-1 1.6-1.7 2.2 -1.7 1.5-3.7 1.4-5.4-0.1 -1.9-1.9-2.6-4.3-2.9-6.8 -0.4-3.6 0-7.1 2.4-10.1 1.9-2.4 4.6-2.4 6.6 0 0.4 0.5 0.7 1 1 1.5C98.5 37.8 98.9 39.8 98.9 42.2z" class="a"/><path d="M65.5 50.3c0-2.6 0.5-5.2 1.9-7.4 2.2-3.4 5.7-3.5 7.7 0.1 2.8 4.9 2.8 10-0.1 14.9 -1.9 3.3-5.3 3.2-7.5 0.1C66 55.6 65.5 53 65.5 50.3z" class="a"/></svg>
