<svg width="40" height="40" viewBox="0 0 40 40" fill="none" xmlns="http://www.w3.org/2000/svg">
<path d="M20 40C31.0457 40 40 31.0457 40 20C40 8.9543 31.0457 0 20 0C8.9543 0 0 8.9543 0 20C0 31.0457 8.9543 40 20 40Z" fill="#FCF0E9"/>
<path d="M28.5393 23.827L25.0676 21.2125C24.8535 21.0537 24.5897 20.9769 24.3239 20.996C24.0581 21.0151 23.808 21.1289 23.6189 21.3167L21.8956 23.0281C21.8317 23.0942 21.7497 23.14 21.6598 23.1596C21.57 23.1793 21.4764 23.172 21.3907 23.1386C19.9097 22.5512 18.5633 21.6693 17.4329 20.5463C16.3094 19.4161 15.4277 18.0689 14.8417 16.5867C14.8084 16.501 14.8011 16.4073 14.8207 16.3174C14.8404 16.2275 14.8861 16.1455 14.9522 16.0815L16.6628 14.3669C16.8505 14.1777 16.9643 13.9275 16.9834 13.6616C17.0025 13.3957 16.9257 13.1317 16.7669 12.9176L14.1537 9.44431C14.0013 9.24066 13.7837 9.09563 13.5371 9.03354C13.2906 8.97144 13.0302 8.99607 12.7997 9.10329L9.64354 10.5842C9.42616 10.6826 9.24687 10.8494 9.13293 11.0592C9.01899 11.2689 8.97664 11.5101 9.01231 11.7462C9.32792 13.8207 10.4799 19.0085 14.6934 23.2397C18.9068 27.5024 24.1491 28.6801 26.2385 28.9959C26.2962 29.0014 26.3543 29.0014 26.4121 28.9959C26.6216 28.9967 26.827 28.9378 27.0042 28.8259C27.1815 28.7141 27.3231 28.554 27.4126 28.3644L28.8928 25.2068C29.0041 24.9717 29.0297 24.7051 28.9651 24.453C28.9006 24.201 28.7499 23.9796 28.5393 23.827ZM28.3058 24.9163L26.8255 28.0739C26.7838 28.1677 26.7123 28.2451 26.6222 28.2942C26.532 28.3432 26.4282 28.3613 26.3269 28.3454C24.3574 28.055 19.4938 26.9719 15.454 23.1039L15.435 23.0881C15.3277 22.9839 15.2204 22.8797 15.1194 22.7724L14.8796 22.5292L14.8638 22.5134C10.9975 18.4844 9.91497 13.6154 9.6246 11.6451C9.60878 11.5437 9.6268 11.4399 9.67586 11.3497C9.72492 11.2595 9.80229 11.188 9.89603 11.1462L13.0522 9.66534C13.1518 9.61962 13.2641 9.60941 13.3703 9.63641C13.4765 9.66342 13.5703 9.726 13.636 9.81374L16.2493 13.2871C16.3198 13.3798 16.3542 13.4949 16.3461 13.6111C16.3379 13.7273 16.2878 13.8366 16.2051 13.9186L14.4914 15.63C14.3389 15.7815 14.234 15.9743 14.1897 16.1847C14.1454 16.3951 14.1636 16.6139 14.242 16.814C14.8588 18.3775 15.789 19.7981 16.9752 20.9883C18.1657 22.1742 19.5855 23.1046 21.1476 23.7228C21.3472 23.8014 21.5654 23.8197 21.7753 23.7753C21.9851 23.731 22.1773 23.626 22.328 23.4733L24.0418 21.7588C24.1238 21.676 24.233 21.6259 24.3491 21.6178C24.4653 21.6097 24.5804 21.6441 24.673 21.7146L28.1448 24.329C28.2354 24.3932 28.3009 24.4868 28.3303 24.5939C28.3597 24.701 28.351 24.8149 28.3058 24.9163Z" fill="#14142A"/>
<path d="M20.732 16.3654C21.067 16.3654 21.3882 16.4985 21.6251 16.7353C21.862 16.9722 21.995 17.2934 21.995 17.6284C21.995 17.7122 22.0283 17.7925 22.0875 17.8517C22.1467 17.9109 22.2271 17.9442 22.3108 17.9442C22.3945 17.9442 22.4749 17.9109 22.5341 17.8517C22.5933 17.7925 22.6265 17.7122 22.6265 17.6284C22.6265 17.126 22.4269 16.6441 22.0717 16.2888C21.7164 15.9335 21.2345 15.7339 20.732 15.7339C20.6483 15.7339 20.568 15.7672 20.5087 15.8264C20.4495 15.8856 20.4163 15.9659 20.4163 16.0496C20.4163 16.1334 20.4495 16.2137 20.5087 16.2729C20.568 16.3321 20.6483 16.3654 20.732 16.3654Z" fill="#EBA37A"/>
<path d="M20.7319 14.1552C21.1878 14.1552 21.6392 14.245 22.0605 14.4196C22.4817 14.5941 22.8644 14.85 23.1868 15.1725C23.5091 15.495 23.7649 15.8779 23.9393 16.2993C24.1138 16.7207 24.2036 17.1724 24.2036 17.6285C24.2036 17.7122 24.2369 17.7926 24.2961 17.8518C24.3552 17.911 24.4355 17.9443 24.5192 17.9443C24.6029 17.9443 24.6832 17.911 24.7424 17.8518C24.8016 17.7926 24.8348 17.7122 24.8348 17.6285C24.8348 16.5398 24.4026 15.4958 23.6331 14.726C22.8637 13.9562 21.82 13.5237 20.7319 13.5237C20.6482 13.5237 20.5679 13.5569 20.5087 13.6162C20.4495 13.6754 20.4163 13.7557 20.4163 13.8394C20.4163 13.9232 20.4495 14.0035 20.5087 14.0627C20.5679 14.1219 20.6482 14.1552 20.7319 14.1552Z" fill="#EBA37A"/>
<path d="M20.7319 12.2607C22.1549 12.2607 23.5196 12.8262 24.5258 13.8329C25.532 14.8395 26.0973 16.2049 26.0973 17.6285C26.0973 17.7123 26.1306 17.7926 26.1897 17.8518C26.2489 17.911 26.3292 17.9443 26.4129 17.9443C26.4966 17.9443 26.5769 17.911 26.6361 17.8518C26.6953 17.7926 26.7285 17.7123 26.7285 17.6285C26.7285 16.0374 26.0967 14.5114 24.9721 13.3863C23.8476 12.2612 22.3223 11.6292 20.7319 11.6292C20.6482 11.6292 20.5679 11.6624 20.5087 11.7216C20.4495 11.7808 20.4163 11.8612 20.4163 11.9449C20.4163 12.0286 20.4495 12.109 20.5087 12.1682C20.5679 12.2274 20.6482 12.2607 20.7319 12.2607Z" fill="#EBA37A"/>
</svg>
